<mxfile host="Electron" agent="Mozilla/5.0 (Macintosh; Intel Mac OS X 10_15_7) AppleWebKit/537.36 (KHTML, like Gecko) draw.io/24.7.17 Chrome/128.0.6613.36 Electron/32.0.1 Safari/537.36" version="24.7.17">
  <diagram name="Pagina-1" id="yp7uI2HVbiBTKySCATYZ">
    <mxGraphModel dx="2278" dy="1052" grid="1" gridSize="10" guides="1" tooltips="1" connect="1" arrows="1" fold="1" page="1" pageScale="1" pageWidth="827" pageHeight="1169" math="0" shadow="0">
      <root>
        <mxCell id="0" />
        <mxCell id="1" parent="0" />
        <mxCell id="_SJTar7--ndW2MHWfhsV-200" value="" style="rounded=0;whiteSpace=wrap;html=1;movable=0;resizable=0;rotatable=0;deletable=0;editable=0;locked=1;connectable=0;" vertex="1" parent="1">
          <mxGeometry x="40" y="200" width="1240" height="440" as="geometry" />
        </mxCell>
        <mxCell id="_SJTar7--ndW2MHWfhsV-93" value="" style="endArrow=none;html=1;rounded=0;fillColor=#a0522d;strokeColor=#6D1F00;" edge="1" parent="1" source="_SJTar7--ndW2MHWfhsV-94">
          <mxGeometry width="50" height="50" relative="1" as="geometry">
            <mxPoint x="959" y="510" as="sourcePoint" />
            <mxPoint x="1009" y="510" as="targetPoint" />
          </mxGeometry>
        </mxCell>
        <mxCell id="_SJTar7--ndW2MHWfhsV-94" value="" style="shape=waypoint;sketch=0;fillStyle=solid;size=6;pointerEvents=1;points=[];fillColor=#a0522d;resizable=0;rotatable=0;perimeter=centerPerimeter;snapToPoint=1;strokeColor=#6D1F00;fontColor=#ffffff;rotation=90;" vertex="1" parent="1">
          <mxGeometry x="951" y="500" width="20" height="20" as="geometry" />
        </mxCell>
        <mxCell id="_SJTar7--ndW2MHWfhsV-96" value="" style="endArrow=none;html=1;rounded=0;fillColor=#a0522d;strokeColor=#6D1F00;" edge="1" parent="1" source="_SJTar7--ndW2MHWfhsV-97">
          <mxGeometry width="50" height="50" relative="1" as="geometry">
            <mxPoint x="559" y="512" as="sourcePoint" />
            <mxPoint x="609" y="512" as="targetPoint" />
          </mxGeometry>
        </mxCell>
        <mxCell id="_SJTar7--ndW2MHWfhsV-97" value="" style="shape=waypoint;sketch=0;fillStyle=solid;size=6;pointerEvents=1;points=[];fillColor=#a0522d;resizable=0;rotatable=0;perimeter=centerPerimeter;snapToPoint=1;strokeColor=#6D1F00;fontColor=#ffffff;rotation=90;" vertex="1" parent="1">
          <mxGeometry x="551" y="502" width="20" height="20" as="geometry" />
        </mxCell>
        <mxCell id="_SJTar7--ndW2MHWfhsV-99" value="" style="endArrow=none;html=1;rounded=0;fillColor=#a0522d;strokeColor=#6D1F00;" edge="1" parent="1" source="_SJTar7--ndW2MHWfhsV-100">
          <mxGeometry width="50" height="50" relative="1" as="geometry">
            <mxPoint x="159" y="512" as="sourcePoint" />
            <mxPoint x="209" y="512" as="targetPoint" />
          </mxGeometry>
        </mxCell>
        <mxCell id="_SJTar7--ndW2MHWfhsV-100" value="" style="shape=waypoint;sketch=0;fillStyle=solid;size=6;pointerEvents=1;points=[];fillColor=#a0522d;resizable=0;rotatable=0;perimeter=centerPerimeter;snapToPoint=1;strokeColor=#6D1F00;fontColor=#ffffff;rotation=90;" vertex="1" parent="1">
          <mxGeometry x="151" y="502" width="20" height="20" as="geometry" />
        </mxCell>
        <mxCell id="_SJTar7--ndW2MHWfhsV-83" value="" style="endArrow=none;html=1;rounded=0;fillColor=#e3c800;strokeColor=#B09500;" edge="1" parent="1" source="_SJTar7--ndW2MHWfhsV-84">
          <mxGeometry width="50" height="50" relative="1" as="geometry">
            <mxPoint x="959" y="478" as="sourcePoint" />
            <mxPoint x="1009" y="478" as="targetPoint" />
          </mxGeometry>
        </mxCell>
        <mxCell id="_SJTar7--ndW2MHWfhsV-84" value="" style="shape=waypoint;sketch=0;fillStyle=solid;size=6;pointerEvents=1;points=[];fillColor=#e3c800;resizable=0;rotatable=0;perimeter=centerPerimeter;snapToPoint=1;strokeColor=#B09500;fontColor=#000000;rotation=90;" vertex="1" parent="1">
          <mxGeometry x="951" y="468" width="20" height="20" as="geometry" />
        </mxCell>
        <mxCell id="_SJTar7--ndW2MHWfhsV-86" value="" style="endArrow=none;html=1;rounded=0;fillColor=#e3c800;strokeColor=#B09500;" edge="1" parent="1" source="_SJTar7--ndW2MHWfhsV-87">
          <mxGeometry width="50" height="50" relative="1" as="geometry">
            <mxPoint x="559" y="480" as="sourcePoint" />
            <mxPoint x="609" y="480" as="targetPoint" />
          </mxGeometry>
        </mxCell>
        <mxCell id="_SJTar7--ndW2MHWfhsV-87" value="" style="shape=waypoint;sketch=0;fillStyle=solid;size=6;pointerEvents=1;points=[];fillColor=#e3c800;resizable=0;rotatable=0;perimeter=centerPerimeter;snapToPoint=1;strokeColor=#B09500;fontColor=#000000;rotation=90;" vertex="1" parent="1">
          <mxGeometry x="551" y="470" width="20" height="20" as="geometry" />
        </mxCell>
        <mxCell id="_SJTar7--ndW2MHWfhsV-89" value="" style="endArrow=none;html=1;rounded=0;fillColor=#e3c800;strokeColor=#B09500;" edge="1" parent="1" source="_SJTar7--ndW2MHWfhsV-90">
          <mxGeometry width="50" height="50" relative="1" as="geometry">
            <mxPoint x="159" y="480" as="sourcePoint" />
            <mxPoint x="209" y="480" as="targetPoint" />
          </mxGeometry>
        </mxCell>
        <mxCell id="_SJTar7--ndW2MHWfhsV-90" value="" style="shape=waypoint;sketch=0;fillStyle=solid;size=6;pointerEvents=1;points=[];fillColor=#e3c800;resizable=0;rotatable=0;perimeter=centerPerimeter;snapToPoint=1;strokeColor=#B09500;fontColor=#000000;rotation=90;" vertex="1" parent="1">
          <mxGeometry x="151" y="470" width="20" height="20" as="geometry" />
        </mxCell>
        <mxCell id="_SJTar7--ndW2MHWfhsV-70" value="" style="group;direction=east;rotation=90;" vertex="1" connectable="0" parent="1">
          <mxGeometry x="970" y="390" width="20" height="58" as="geometry" />
        </mxCell>
        <mxCell id="_SJTar7--ndW2MHWfhsV-71" value="" style="endArrow=none;html=1;rounded=0;fillColor=#e51400;strokeColor=#B20000;" edge="1" parent="_SJTar7--ndW2MHWfhsV-70" source="_SJTar7--ndW2MHWfhsV-72">
          <mxGeometry width="50" height="50" relative="1" as="geometry">
            <mxPoint x="-11" y="29" as="sourcePoint" />
            <mxPoint x="39" y="29" as="targetPoint" />
          </mxGeometry>
        </mxCell>
        <mxCell id="_SJTar7--ndW2MHWfhsV-72" value="" style="shape=waypoint;sketch=0;fillStyle=solid;size=6;pointerEvents=1;points=[];fillColor=#e51400;resizable=0;rotatable=0;perimeter=centerPerimeter;snapToPoint=1;strokeColor=#B20000;fontColor=#ffffff;rotation=90;" vertex="1" parent="_SJTar7--ndW2MHWfhsV-70">
          <mxGeometry x="-19" y="19" width="20" height="20" as="geometry" />
        </mxCell>
        <mxCell id="_SJTar7--ndW2MHWfhsV-67" value="" style="group;direction=east;rotation=90;" vertex="1" connectable="0" parent="1">
          <mxGeometry x="570" y="392" width="20" height="58" as="geometry" />
        </mxCell>
        <mxCell id="_SJTar7--ndW2MHWfhsV-68" value="" style="endArrow=none;html=1;rounded=0;fillColor=#e51400;strokeColor=#B20000;" edge="1" parent="_SJTar7--ndW2MHWfhsV-67" source="_SJTar7--ndW2MHWfhsV-69">
          <mxGeometry width="50" height="50" relative="1" as="geometry">
            <mxPoint x="-11" y="29" as="sourcePoint" />
            <mxPoint x="39" y="29" as="targetPoint" />
          </mxGeometry>
        </mxCell>
        <mxCell id="_SJTar7--ndW2MHWfhsV-69" value="" style="shape=waypoint;sketch=0;fillStyle=solid;size=6;pointerEvents=1;points=[];fillColor=#e51400;resizable=0;rotatable=0;perimeter=centerPerimeter;snapToPoint=1;strokeColor=#B20000;fontColor=#ffffff;rotation=90;" vertex="1" parent="_SJTar7--ndW2MHWfhsV-67">
          <mxGeometry x="-19" y="19" width="20" height="20" as="geometry" />
        </mxCell>
        <mxCell id="_SJTar7--ndW2MHWfhsV-66" value="" style="group;direction=east;rotation=90;" vertex="1" connectable="0" parent="1">
          <mxGeometry x="170" y="392" width="20" height="58" as="geometry" />
        </mxCell>
        <mxCell id="_SJTar7--ndW2MHWfhsV-64" value="" style="endArrow=none;html=1;rounded=0;fillColor=#e51400;strokeColor=#B20000;" edge="1" source="_SJTar7--ndW2MHWfhsV-65" parent="_SJTar7--ndW2MHWfhsV-66">
          <mxGeometry width="50" height="50" relative="1" as="geometry">
            <mxPoint x="-11" y="29" as="sourcePoint" />
            <mxPoint x="39" y="29" as="targetPoint" />
          </mxGeometry>
        </mxCell>
        <mxCell id="_SJTar7--ndW2MHWfhsV-65" value="" style="shape=waypoint;sketch=0;fillStyle=solid;size=6;pointerEvents=1;points=[];fillColor=#e51400;resizable=0;rotatable=0;perimeter=centerPerimeter;snapToPoint=1;strokeColor=#B20000;fontColor=#ffffff;rotation=90;" vertex="1" parent="_SJTar7--ndW2MHWfhsV-66">
          <mxGeometry x="-19" y="19" width="20" height="20" as="geometry" />
        </mxCell>
        <mxCell id="_SJTar7--ndW2MHWfhsV-11" value="&lt;font style=&quot;font-size: 13px;&quot;&gt;clk&lt;/font&gt;" style="text;html=1;align=center;verticalAlign=middle;whiteSpace=wrap;rounded=0;container=0;" vertex="1" parent="1">
          <mxGeometry x="-20" y="269" width="30" height="20" as="geometry" />
        </mxCell>
        <mxCell id="_SJTar7--ndW2MHWfhsV-12" value="&lt;font style=&quot;font-size: 13px;&quot;&gt;en&lt;/font&gt;" style="text;html=1;align=center;verticalAlign=middle;whiteSpace=wrap;rounded=0;container=0;" vertex="1" parent="1">
          <mxGeometry x="-20" y="299" width="30" height="20" as="geometry" />
        </mxCell>
        <mxCell id="_SJTar7--ndW2MHWfhsV-13" value="&lt;font style=&quot;font-size: 13px;&quot;&gt;rst&lt;/font&gt;" style="text;html=1;align=center;verticalAlign=middle;whiteSpace=wrap;rounded=0;container=0;" vertex="1" parent="1">
          <mxGeometry x="-20" y="331" width="30" height="20" as="geometry" />
        </mxCell>
        <mxCell id="_SJTar7--ndW2MHWfhsV-14" value="&lt;font style=&quot;font-size: 13px;&quot;&gt;set&lt;/font&gt;" style="text;html=1;align=center;verticalAlign=middle;whiteSpace=wrap;rounded=0;container=0;" vertex="1" parent="1">
          <mxGeometry x="-20" y="361" width="30" height="20" as="geometry" />
        </mxCell>
        <mxCell id="_SJTar7--ndW2MHWfhsV-15" value="&lt;font style=&quot;font-size: 13px;&quot;&gt;set_sec&lt;/font&gt;" style="text;html=1;align=center;verticalAlign=middle;whiteSpace=wrap;rounded=0;container=0;" vertex="1" parent="1">
          <mxGeometry x="-39" y="388" width="40" height="21" as="geometry" />
        </mxCell>
        <mxCell id="_SJTar7--ndW2MHWfhsV-16" value="&lt;font style=&quot;font-size: 13px;&quot;&gt;count&lt;/font&gt;" style="text;html=1;align=center;verticalAlign=middle;whiteSpace=wrap;rounded=0;container=0;" vertex="1" parent="1">
          <mxGeometry x="310" y="480" width="40" height="20" as="geometry" />
        </mxCell>
        <mxCell id="_SJTar7--ndW2MHWfhsV-17" value="&lt;font style=&quot;font-size: 13px;&quot;&gt;counter_sec&lt;/font&gt;" style="text;html=1;align=center;verticalAlign=middle;whiteSpace=wrap;rounded=0;container=0;" vertex="1" parent="1">
          <mxGeometry x="370" y="448" width="50" height="20" as="geometry" />
        </mxCell>
        <mxCell id="_SJTar7--ndW2MHWfhsV-18" value="&lt;font style=&quot;font-size: 10px;&quot;&gt;6&lt;/font&gt;" style="text;html=1;align=center;verticalAlign=middle;whiteSpace=wrap;rounded=0;container=0;" vertex="1" parent="1">
          <mxGeometry x="165" y="548" width="30" height="10" as="geometry" />
        </mxCell>
        <mxCell id="_SJTar7--ndW2MHWfhsV-19" value="&lt;font style=&quot;font-size: 10px;&quot;&gt;6&lt;/font&gt;" style="text;html=1;align=center;verticalAlign=middle;whiteSpace=wrap;rounded=0;container=0;" vertex="1" parent="1">
          <mxGeometry x="310" y="441" width="30" height="10" as="geometry" />
        </mxCell>
        <mxCell id="_SJTar7--ndW2MHWfhsV-37" value="&lt;font style=&quot;font-size: 13px;&quot;&gt;count&lt;/font&gt;" style="text;html=1;align=center;verticalAlign=middle;whiteSpace=wrap;rounded=0;container=0;" vertex="1" parent="1">
          <mxGeometry x="710" y="480" width="40" height="20" as="geometry" />
        </mxCell>
        <mxCell id="_SJTar7--ndW2MHWfhsV-39" value="&lt;font style=&quot;font-size: 10px;&quot;&gt;6&lt;/font&gt;" style="text;html=1;align=center;verticalAlign=middle;whiteSpace=wrap;rounded=0;container=0;" vertex="1" parent="1">
          <mxGeometry x="565" y="548" width="30" height="10" as="geometry" />
        </mxCell>
        <mxCell id="_SJTar7--ndW2MHWfhsV-59" value="&lt;font style=&quot;font-size: 10px;&quot;&gt;5&lt;/font&gt;" style="text;html=1;align=center;verticalAlign=middle;whiteSpace=wrap;rounded=0;container=0;" vertex="1" parent="1">
          <mxGeometry x="965" y="548" width="30" height="10" as="geometry" />
        </mxCell>
        <mxCell id="_SJTar7--ndW2MHWfhsV-102" value="" style="endArrow=none;html=1;rounded=0;fillColor=#76608a;strokeColor=#432D57;" edge="1" parent="1" source="_SJTar7--ndW2MHWfhsV-103">
          <mxGeometry width="50" height="50" relative="1" as="geometry">
            <mxPoint x="958" y="538" as="sourcePoint" />
            <mxPoint x="1008" y="538" as="targetPoint" />
          </mxGeometry>
        </mxCell>
        <mxCell id="_SJTar7--ndW2MHWfhsV-112" value="//" style="edgeLabel;html=1;align=center;verticalAlign=middle;resizable=0;points=[];" vertex="1" connectable="0" parent="_SJTar7--ndW2MHWfhsV-102">
          <mxGeometry x="0.261" y="-1" relative="1" as="geometry">
            <mxPoint x="-10" y="-1" as="offset" />
          </mxGeometry>
        </mxCell>
        <mxCell id="_SJTar7--ndW2MHWfhsV-103" value="" style="shape=waypoint;sketch=0;fillStyle=solid;size=6;pointerEvents=1;points=[];fillColor=#76608a;resizable=0;rotatable=0;perimeter=centerPerimeter;snapToPoint=1;strokeColor=#432D57;fontColor=#ffffff;rotation=90;" vertex="1" parent="1">
          <mxGeometry x="950" y="528" width="20" height="20" as="geometry" />
        </mxCell>
        <mxCell id="_SJTar7--ndW2MHWfhsV-105" value="" style="endArrow=none;html=1;rounded=0;fillColor=#76608a;strokeColor=#432D57;" edge="1" parent="1" source="_SJTar7--ndW2MHWfhsV-106">
          <mxGeometry width="50" height="50" relative="1" as="geometry">
            <mxPoint x="558" y="540" as="sourcePoint" />
            <mxPoint x="608" y="540" as="targetPoint" />
          </mxGeometry>
        </mxCell>
        <mxCell id="_SJTar7--ndW2MHWfhsV-111" value="//" style="edgeLabel;html=1;align=center;verticalAlign=middle;resizable=0;points=[];" vertex="1" connectable="0" parent="_SJTar7--ndW2MHWfhsV-105">
          <mxGeometry x="0.1294" y="2" relative="1" as="geometry">
            <mxPoint x="-7" as="offset" />
          </mxGeometry>
        </mxCell>
        <mxCell id="_SJTar7--ndW2MHWfhsV-106" value="" style="shape=waypoint;sketch=0;fillStyle=solid;size=6;pointerEvents=1;points=[];fillColor=#76608a;resizable=0;rotatable=0;perimeter=centerPerimeter;snapToPoint=1;strokeColor=#432D57;fontColor=#ffffff;rotation=90;" vertex="1" parent="1">
          <mxGeometry x="550" y="530" width="20" height="20" as="geometry" />
        </mxCell>
        <mxCell id="_SJTar7--ndW2MHWfhsV-108" value="" style="endArrow=none;html=1;rounded=0;fillColor=#76608a;strokeColor=#432D57;" edge="1" parent="1" source="_SJTar7--ndW2MHWfhsV-109">
          <mxGeometry width="50" height="50" relative="1" as="geometry">
            <mxPoint x="158" y="540" as="sourcePoint" />
            <mxPoint x="208" y="540" as="targetPoint" />
          </mxGeometry>
        </mxCell>
        <mxCell id="_SJTar7--ndW2MHWfhsV-110" value="//" style="edgeLabel;html=1;align=center;verticalAlign=middle;resizable=0;points=[];" vertex="1" connectable="0" parent="_SJTar7--ndW2MHWfhsV-108">
          <mxGeometry x="-0.1338" y="1" relative="1" as="geometry">
            <mxPoint as="offset" />
          </mxGeometry>
        </mxCell>
        <mxCell id="_SJTar7--ndW2MHWfhsV-109" value="" style="shape=waypoint;sketch=0;fillStyle=solid;size=6;pointerEvents=1;points=[];fillColor=#76608a;resizable=0;rotatable=0;perimeter=centerPerimeter;snapToPoint=1;strokeColor=#432D57;fontColor=#ffffff;rotation=90;" vertex="1" parent="1">
          <mxGeometry x="150" y="530" width="20" height="20" as="geometry" />
        </mxCell>
        <mxCell id="_SJTar7--ndW2MHWfhsV-123" value="" style="endArrow=none;html=1;rounded=0;exitX=0;exitY=0.313;exitDx=0;exitDy=0;exitPerimeter=0;" edge="1" parent="1" source="_SJTar7--ndW2MHWfhsV-1">
          <mxGeometry width="50" height="50" relative="1" as="geometry">
            <mxPoint x="120" y="450" as="sourcePoint" />
            <mxPoint x="120" y="380" as="targetPoint" />
            <Array as="points">
              <mxPoint x="120" y="450" />
            </Array>
          </mxGeometry>
        </mxCell>
        <mxCell id="_SJTar7--ndW2MHWfhsV-124" value="&lt;font style=&quot;font-size: 13px;&quot;&gt;en&lt;/font&gt;" style="text;html=1;align=center;verticalAlign=middle;whiteSpace=wrap;rounded=0;container=0;" vertex="1" parent="1">
          <mxGeometry x="125" y="430" width="30" height="20" as="geometry" />
        </mxCell>
        <mxCell id="_SJTar7--ndW2MHWfhsV-139" value="" style="endArrow=none;html=1;rounded=0;entryX=0;entryY=0.25;entryDx=0;entryDy=0;entryPerimeter=0;" edge="1" parent="1" target="_SJTar7--ndW2MHWfhsV-138">
          <mxGeometry width="50" height="50" relative="1" as="geometry">
            <mxPoint x="310" y="500" as="sourcePoint" />
            <mxPoint x="380" y="520" as="targetPoint" />
            <Array as="points">
              <mxPoint x="360" y="500" />
              <mxPoint x="360" y="530" />
            </Array>
          </mxGeometry>
        </mxCell>
        <mxCell id="_SJTar7--ndW2MHWfhsV-152" value="" style="group" vertex="1" connectable="0" parent="1">
          <mxGeometry x="499" y="251" width="61" height="129" as="geometry" />
        </mxCell>
        <mxCell id="_SJTar7--ndW2MHWfhsV-143" value="" style="group;rotation=90;" vertex="1" connectable="0" parent="_SJTar7--ndW2MHWfhsV-152">
          <mxGeometry x="21" y="19" width="58" height="20" as="geometry" />
        </mxCell>
        <mxCell id="_SJTar7--ndW2MHWfhsV-144" value="" style="endArrow=none;html=1;rounded=0;fillColor=#e3c800;strokeColor=#B09500;" edge="1" parent="_SJTar7--ndW2MHWfhsV-143" source="_SJTar7--ndW2MHWfhsV-145">
          <mxGeometry width="50" height="50" relative="1" as="geometry">
            <mxPoint x="29" y="-11" as="sourcePoint" />
            <mxPoint x="29" y="39" as="targetPoint" />
          </mxGeometry>
        </mxCell>
        <mxCell id="_SJTar7--ndW2MHWfhsV-145" value="" style="shape=waypoint;sketch=0;fillStyle=solid;size=6;pointerEvents=1;points=[];fillColor=#e3c800;resizable=0;rotatable=0;perimeter=centerPerimeter;snapToPoint=1;strokeColor=#B09500;fontColor=#000000;rotation=180;" vertex="1" parent="_SJTar7--ndW2MHWfhsV-143">
          <mxGeometry x="19" y="-19" width="20" height="20" as="geometry" />
        </mxCell>
        <mxCell id="_SJTar7--ndW2MHWfhsV-146" value="" style="shape=xor;whiteSpace=wrap;html=1;rotation=90;" vertex="1" parent="_SJTar7--ndW2MHWfhsV-152">
          <mxGeometry x="21" y="29" width="40" height="40" as="geometry" />
        </mxCell>
        <mxCell id="_SJTar7--ndW2MHWfhsV-147" value="" style="group;rotation=90;" vertex="1" connectable="0" parent="_SJTar7--ndW2MHWfhsV-152">
          <mxGeometry x="-19" y="79" width="58" height="20" as="geometry" />
        </mxCell>
        <mxCell id="_SJTar7--ndW2MHWfhsV-148" value="" style="endArrow=none;html=1;rounded=0;fillColor=#a0522d;strokeColor=#6D1F00;" edge="1" parent="_SJTar7--ndW2MHWfhsV-147" source="_SJTar7--ndW2MHWfhsV-149">
          <mxGeometry width="50" height="50" relative="1" as="geometry">
            <mxPoint x="29" y="-11" as="sourcePoint" />
            <mxPoint x="29" y="39" as="targetPoint" />
          </mxGeometry>
        </mxCell>
        <mxCell id="_SJTar7--ndW2MHWfhsV-149" value="" style="shape=waypoint;sketch=0;fillStyle=solid;size=6;pointerEvents=1;points=[];fillColor=#a0522d;resizable=0;rotatable=0;perimeter=centerPerimeter;snapToPoint=1;strokeColor=#6D1F00;fontColor=#ffffff;rotation=180;" vertex="1" parent="_SJTar7--ndW2MHWfhsV-147">
          <mxGeometry x="19" y="-19" width="20" height="20" as="geometry" />
        </mxCell>
        <mxCell id="_SJTar7--ndW2MHWfhsV-150" value="" style="shape=xor;whiteSpace=wrap;html=1;rotation=90;" vertex="1" parent="_SJTar7--ndW2MHWfhsV-152">
          <mxGeometry x="1" y="89" width="40" height="40" as="geometry" />
        </mxCell>
        <mxCell id="_SJTar7--ndW2MHWfhsV-151" value="" style="endArrow=none;html=1;rounded=0;entryX=1;entryY=0.5;entryDx=0;entryDy=0;entryPerimeter=0;exitX=0.25;exitY=0.5;exitDx=0;exitDy=0;exitPerimeter=0;" edge="1" parent="_SJTar7--ndW2MHWfhsV-152" source="_SJTar7--ndW2MHWfhsV-150" target="_SJTar7--ndW2MHWfhsV-146">
          <mxGeometry width="50" height="50" relative="1" as="geometry">
            <mxPoint x="161" y="149" as="sourcePoint" />
            <mxPoint x="211" y="99" as="targetPoint" />
            <Array as="points">
              <mxPoint x="21" y="79" />
              <mxPoint x="41" y="79" />
            </Array>
          </mxGeometry>
        </mxCell>
        <mxCell id="_SJTar7--ndW2MHWfhsV-153" value="" style="group" vertex="1" connectable="0" parent="1">
          <mxGeometry x="99" y="251" width="61" height="129" as="geometry" />
        </mxCell>
        <mxCell id="_SJTar7--ndW2MHWfhsV-114" value="" style="group;rotation=90;" vertex="1" connectable="0" parent="_SJTar7--ndW2MHWfhsV-153">
          <mxGeometry x="1" y="19" width="58" height="20" as="geometry" />
        </mxCell>
        <mxCell id="_SJTar7--ndW2MHWfhsV-80" value="" style="endArrow=none;html=1;rounded=0;fillColor=#008a00;strokeColor=#005700;" edge="1" parent="_SJTar7--ndW2MHWfhsV-114" source="_SJTar7--ndW2MHWfhsV-81">
          <mxGeometry width="50" height="50" relative="1" as="geometry">
            <mxPoint x="29" y="-11" as="sourcePoint" />
            <mxPoint x="29" y="39" as="targetPoint" />
          </mxGeometry>
        </mxCell>
        <mxCell id="_SJTar7--ndW2MHWfhsV-81" value="" style="shape=waypoint;sketch=0;fillStyle=solid;size=6;pointerEvents=1;points=[];fillColor=#008a00;resizable=0;rotatable=0;perimeter=centerPerimeter;snapToPoint=1;strokeColor=#005700;fontColor=#ffffff;rotation=180;container=0;" vertex="1" parent="_SJTar7--ndW2MHWfhsV-114">
          <mxGeometry x="19" y="-19" width="20" height="20" as="geometry" />
        </mxCell>
        <mxCell id="_SJTar7--ndW2MHWfhsV-117" value="" style="group;rotation=90;" vertex="1" connectable="0" parent="_SJTar7--ndW2MHWfhsV-153">
          <mxGeometry x="21" y="19" width="58" height="20" as="geometry" />
        </mxCell>
        <mxCell id="_SJTar7--ndW2MHWfhsV-115" value="" style="endArrow=none;html=1;rounded=0;fillColor=#e3c800;strokeColor=#B09500;" edge="1" parent="_SJTar7--ndW2MHWfhsV-117" source="_SJTar7--ndW2MHWfhsV-116">
          <mxGeometry width="50" height="50" relative="1" as="geometry">
            <mxPoint x="29" y="-11" as="sourcePoint" />
            <mxPoint x="29" y="39" as="targetPoint" />
          </mxGeometry>
        </mxCell>
        <mxCell id="_SJTar7--ndW2MHWfhsV-116" value="" style="shape=waypoint;sketch=0;fillStyle=solid;size=6;pointerEvents=1;points=[];fillColor=#e3c800;resizable=0;rotatable=0;perimeter=centerPerimeter;snapToPoint=1;strokeColor=#B09500;fontColor=#000000;rotation=180;" vertex="1" parent="_SJTar7--ndW2MHWfhsV-117">
          <mxGeometry x="19" y="-19" width="20" height="20" as="geometry" />
        </mxCell>
        <mxCell id="_SJTar7--ndW2MHWfhsV-113" value="" style="shape=xor;whiteSpace=wrap;html=1;rotation=90;" vertex="1" parent="_SJTar7--ndW2MHWfhsV-153">
          <mxGeometry x="21" y="29" width="40" height="40" as="geometry" />
        </mxCell>
        <mxCell id="_SJTar7--ndW2MHWfhsV-121" value="" style="group;rotation=90;" vertex="1" connectable="0" parent="_SJTar7--ndW2MHWfhsV-153">
          <mxGeometry x="-19" y="79" width="58" height="20" as="geometry" />
        </mxCell>
        <mxCell id="_SJTar7--ndW2MHWfhsV-119" value="" style="endArrow=none;html=1;rounded=0;fillColor=#a0522d;strokeColor=#6D1F00;" edge="1" parent="_SJTar7--ndW2MHWfhsV-121" source="_SJTar7--ndW2MHWfhsV-120">
          <mxGeometry width="50" height="50" relative="1" as="geometry">
            <mxPoint x="29" y="-11" as="sourcePoint" />
            <mxPoint x="29" y="39" as="targetPoint" />
          </mxGeometry>
        </mxCell>
        <mxCell id="_SJTar7--ndW2MHWfhsV-120" value="" style="shape=waypoint;sketch=0;fillStyle=solid;size=6;pointerEvents=1;points=[];fillColor=#a0522d;resizable=0;rotatable=0;perimeter=centerPerimeter;snapToPoint=1;strokeColor=#6D1F00;fontColor=#ffffff;rotation=180;" vertex="1" parent="_SJTar7--ndW2MHWfhsV-121">
          <mxGeometry x="19" y="-19" width="20" height="20" as="geometry" />
        </mxCell>
        <mxCell id="_SJTar7--ndW2MHWfhsV-118" value="" style="shape=xor;whiteSpace=wrap;html=1;rotation=90;" vertex="1" parent="_SJTar7--ndW2MHWfhsV-153">
          <mxGeometry x="1" y="89" width="40" height="40" as="geometry" />
        </mxCell>
        <mxCell id="_SJTar7--ndW2MHWfhsV-122" value="" style="endArrow=none;html=1;rounded=0;entryX=1;entryY=0.5;entryDx=0;entryDy=0;entryPerimeter=0;exitX=0.25;exitY=0.5;exitDx=0;exitDy=0;exitPerimeter=0;" edge="1" parent="_SJTar7--ndW2MHWfhsV-153" source="_SJTar7--ndW2MHWfhsV-118" target="_SJTar7--ndW2MHWfhsV-113">
          <mxGeometry width="50" height="50" relative="1" as="geometry">
            <mxPoint x="161" y="149" as="sourcePoint" />
            <mxPoint x="211" y="99" as="targetPoint" />
            <Array as="points">
              <mxPoint x="21" y="79" />
              <mxPoint x="41" y="79" />
            </Array>
          </mxGeometry>
        </mxCell>
        <mxCell id="_SJTar7--ndW2MHWfhsV-154" value="" style="group" vertex="1" connectable="0" parent="1">
          <mxGeometry x="899" y="251" width="61" height="129" as="geometry" />
        </mxCell>
        <mxCell id="_SJTar7--ndW2MHWfhsV-158" value="" style="group;rotation=90;" vertex="1" connectable="0" parent="_SJTar7--ndW2MHWfhsV-154">
          <mxGeometry x="21" y="19" width="58" height="20" as="geometry" />
        </mxCell>
        <mxCell id="_SJTar7--ndW2MHWfhsV-159" value="" style="endArrow=none;html=1;rounded=0;fillColor=#e3c800;strokeColor=#B09500;" edge="1" parent="_SJTar7--ndW2MHWfhsV-158" source="_SJTar7--ndW2MHWfhsV-160">
          <mxGeometry width="50" height="50" relative="1" as="geometry">
            <mxPoint x="29" y="-11" as="sourcePoint" />
            <mxPoint x="29" y="39" as="targetPoint" />
          </mxGeometry>
        </mxCell>
        <mxCell id="_SJTar7--ndW2MHWfhsV-160" value="" style="shape=waypoint;sketch=0;fillStyle=solid;size=6;pointerEvents=1;points=[];fillColor=#e3c800;resizable=0;rotatable=0;perimeter=centerPerimeter;snapToPoint=1;strokeColor=#B09500;fontColor=#000000;rotation=180;" vertex="1" parent="_SJTar7--ndW2MHWfhsV-158">
          <mxGeometry x="19" y="-19" width="20" height="20" as="geometry" />
        </mxCell>
        <mxCell id="_SJTar7--ndW2MHWfhsV-161" value="" style="shape=xor;whiteSpace=wrap;html=1;rotation=90;" vertex="1" parent="_SJTar7--ndW2MHWfhsV-154">
          <mxGeometry x="21" y="29" width="40" height="40" as="geometry" />
        </mxCell>
        <mxCell id="_SJTar7--ndW2MHWfhsV-162" value="" style="group;rotation=90;" vertex="1" connectable="0" parent="_SJTar7--ndW2MHWfhsV-154">
          <mxGeometry x="-19" y="79" width="58" height="20" as="geometry" />
        </mxCell>
        <mxCell id="_SJTar7--ndW2MHWfhsV-163" value="" style="endArrow=none;html=1;rounded=0;fillColor=#a0522d;strokeColor=#6D1F00;" edge="1" parent="_SJTar7--ndW2MHWfhsV-162" source="_SJTar7--ndW2MHWfhsV-164">
          <mxGeometry width="50" height="50" relative="1" as="geometry">
            <mxPoint x="29" y="-11" as="sourcePoint" />
            <mxPoint x="29" y="39" as="targetPoint" />
          </mxGeometry>
        </mxCell>
        <mxCell id="_SJTar7--ndW2MHWfhsV-164" value="" style="shape=waypoint;sketch=0;fillStyle=solid;size=6;pointerEvents=1;points=[];fillColor=#a0522d;resizable=0;rotatable=0;perimeter=centerPerimeter;snapToPoint=1;strokeColor=#6D1F00;fontColor=#ffffff;rotation=180;" vertex="1" parent="_SJTar7--ndW2MHWfhsV-162">
          <mxGeometry x="19" y="-19" width="20" height="20" as="geometry" />
        </mxCell>
        <mxCell id="_SJTar7--ndW2MHWfhsV-165" value="" style="shape=xor;whiteSpace=wrap;html=1;rotation=90;" vertex="1" parent="_SJTar7--ndW2MHWfhsV-154">
          <mxGeometry x="1" y="89" width="40" height="40" as="geometry" />
        </mxCell>
        <mxCell id="_SJTar7--ndW2MHWfhsV-166" value="" style="endArrow=none;html=1;rounded=0;entryX=1;entryY=0.5;entryDx=0;entryDy=0;entryPerimeter=0;exitX=0.25;exitY=0.5;exitDx=0;exitDy=0;exitPerimeter=0;" edge="1" parent="_SJTar7--ndW2MHWfhsV-154" source="_SJTar7--ndW2MHWfhsV-165" target="_SJTar7--ndW2MHWfhsV-161">
          <mxGeometry width="50" height="50" relative="1" as="geometry">
            <mxPoint x="161" y="149" as="sourcePoint" />
            <mxPoint x="211" y="99" as="targetPoint" />
            <Array as="points">
              <mxPoint x="21" y="79" />
              <mxPoint x="41" y="79" />
            </Array>
          </mxGeometry>
        </mxCell>
        <mxCell id="_SJTar7--ndW2MHWfhsV-140" value="" style="group;rotation=0;" vertex="1" connectable="0" parent="1">
          <mxGeometry x="356" y="540" width="58" height="20" as="geometry" />
        </mxCell>
        <mxCell id="_SJTar7--ndW2MHWfhsV-141" value="" style="endArrow=none;html=1;rounded=0;fillColor=#008a00;strokeColor=#005700;" edge="1" parent="_SJTar7--ndW2MHWfhsV-140" source="_SJTar7--ndW2MHWfhsV-142">
          <mxGeometry width="50" height="50" relative="1" as="geometry">
            <mxPoint x="8" y="10" as="sourcePoint" />
            <mxPoint x="58" y="10" as="targetPoint" />
          </mxGeometry>
        </mxCell>
        <mxCell id="_SJTar7--ndW2MHWfhsV-142" value="" style="shape=waypoint;sketch=0;fillStyle=solid;size=6;pointerEvents=1;points=[];fillColor=#008a00;resizable=0;rotatable=0;perimeter=centerPerimeter;snapToPoint=1;strokeColor=#005700;fontColor=#ffffff;rotation=90;container=0;" vertex="1" parent="_SJTar7--ndW2MHWfhsV-140">
          <mxGeometry width="20" height="20" as="geometry" />
        </mxCell>
        <mxCell id="_SJTar7--ndW2MHWfhsV-138" value="" style="shape=or;whiteSpace=wrap;html=1;" vertex="1" parent="1">
          <mxGeometry x="400" y="520" width="40" height="40" as="geometry" />
        </mxCell>
        <mxCell id="_SJTar7--ndW2MHWfhsV-170" value="" style="endArrow=none;html=1;rounded=0;entryX=0.175;entryY=0.75;entryDx=0;entryDy=0;entryPerimeter=0;exitX=1;exitY=0.5;exitDx=0;exitDy=0;exitPerimeter=0;" edge="1" parent="1" source="_SJTar7--ndW2MHWfhsV-138" target="_SJTar7--ndW2MHWfhsV-146">
          <mxGeometry width="50" height="50" relative="1" as="geometry">
            <mxPoint x="450" y="540" as="sourcePoint" />
            <mxPoint x="530" y="550" as="targetPoint" />
            <Array as="points">
              <mxPoint x="450" y="540" />
              <mxPoint x="450" y="250" />
              <mxPoint x="530" y="250" />
            </Array>
          </mxGeometry>
        </mxCell>
        <mxCell id="_SJTar7--ndW2MHWfhsV-171" value="" style="endArrow=none;html=1;rounded=0;entryX=1;entryY=0.5;entryDx=0;entryDy=0;entryPerimeter=0;" edge="1" parent="1" target="_SJTar7--ndW2MHWfhsV-150">
          <mxGeometry width="50" height="50" relative="1" as="geometry">
            <mxPoint x="590" y="450" as="sourcePoint" />
            <mxPoint x="570" y="550" as="targetPoint" />
            <Array as="points">
              <mxPoint x="520" y="450" />
            </Array>
          </mxGeometry>
        </mxCell>
        <mxCell id="_SJTar7--ndW2MHWfhsV-172" value="&lt;font style=&quot;font-size: 13px;&quot;&gt;en&lt;/font&gt;" style="text;html=1;align=center;verticalAlign=middle;whiteSpace=wrap;rounded=0;container=0;" vertex="1" parent="1">
          <mxGeometry x="520" y="430" width="30" height="20" as="geometry" />
        </mxCell>
        <mxCell id="_SJTar7--ndW2MHWfhsV-174" value="" style="shape=or;whiteSpace=wrap;html=1;" vertex="1" parent="1">
          <mxGeometry x="800" y="520" width="40" height="40" as="geometry" />
        </mxCell>
        <mxCell id="_SJTar7--ndW2MHWfhsV-176" value="" style="endArrow=none;html=1;rounded=0;exitX=0;exitY=1;exitDx=0;exitDy=0;entryX=0;entryY=0.25;entryDx=0;entryDy=0;entryPerimeter=0;" edge="1" parent="1" source="_SJTar7--ndW2MHWfhsV-37" target="_SJTar7--ndW2MHWfhsV-174">
          <mxGeometry width="50" height="50" relative="1" as="geometry">
            <mxPoint x="710" y="470" as="sourcePoint" />
            <mxPoint x="760" y="420" as="targetPoint" />
            <Array as="points">
              <mxPoint x="760" y="500" />
              <mxPoint x="760" y="530" />
            </Array>
          </mxGeometry>
        </mxCell>
        <mxCell id="_SJTar7--ndW2MHWfhsV-177" value="" style="endArrow=none;html=1;rounded=0;entryX=0;entryY=0.75;entryDx=0;entryDy=0;entryPerimeter=0;" edge="1" parent="1" target="_SJTar7--ndW2MHWfhsV-174">
          <mxGeometry width="50" height="50" relative="1" as="geometry">
            <mxPoint x="450" y="520" as="sourcePoint" />
            <mxPoint x="540" y="420" as="targetPoint" />
            <Array as="points">
              <mxPoint x="480" y="520" />
              <mxPoint x="480" y="590" />
              <mxPoint x="780" y="590" />
              <mxPoint x="780" y="550" />
            </Array>
          </mxGeometry>
        </mxCell>
        <mxCell id="_SJTar7--ndW2MHWfhsV-178" value="" style="endArrow=none;html=1;rounded=0;exitX=1;exitY=0.5;exitDx=0;exitDy=0;exitPerimeter=0;entryX=0.175;entryY=0.75;entryDx=0;entryDy=0;entryPerimeter=0;" edge="1" parent="1" source="_SJTar7--ndW2MHWfhsV-174" target="_SJTar7--ndW2MHWfhsV-161">
          <mxGeometry width="50" height="50" relative="1" as="geometry">
            <mxPoint x="770" y="440" as="sourcePoint" />
            <mxPoint x="820" y="390" as="targetPoint" />
            <Array as="points">
              <mxPoint x="850" y="540" />
              <mxPoint x="850" y="250" />
              <mxPoint x="930" y="250" />
            </Array>
          </mxGeometry>
        </mxCell>
        <mxCell id="_SJTar7--ndW2MHWfhsV-179" value="" style="endArrow=none;html=1;rounded=0;entryX=1;entryY=0.5;entryDx=0;entryDy=0;entryPerimeter=0;exitX=-0.005;exitY=0.313;exitDx=0;exitDy=0;exitPerimeter=0;" edge="1" parent="1" source="_SJTar7--ndW2MHWfhsV-42" target="_SJTar7--ndW2MHWfhsV-165">
          <mxGeometry width="50" height="50" relative="1" as="geometry">
            <mxPoint x="980" y="450" as="sourcePoint" />
            <mxPoint x="790" y="400" as="targetPoint" />
            <Array as="points">
              <mxPoint x="920" y="450" />
            </Array>
          </mxGeometry>
        </mxCell>
        <mxCell id="_SJTar7--ndW2MHWfhsV-180" value="&lt;font style=&quot;font-size: 13px;&quot;&gt;en&lt;/font&gt;" style="text;html=1;align=center;verticalAlign=middle;whiteSpace=wrap;rounded=0;container=0;" vertex="1" parent="1">
          <mxGeometry x="921" y="430" width="30" height="20" as="geometry" />
        </mxCell>
        <mxCell id="_SJTar7--ndW2MHWfhsV-1" value="&lt;font style=&quot;font-size: 15px;&quot;&gt;Counter&lt;/font&gt;&lt;div&gt;&lt;font style=&quot;font-size: 15px;&quot;&gt;mod_60&lt;/font&gt;&lt;/div&gt;" style="rounded=0;whiteSpace=wrap;html=1;container=0;" vertex="1" parent="1">
          <mxGeometry x="190" y="400" width="120" height="160" as="geometry" />
        </mxCell>
        <mxCell id="_SJTar7--ndW2MHWfhsV-186" value="" style="group;direction=west;rotation=-90;" vertex="1" connectable="0" parent="1">
          <mxGeometry x="330" y="441" width="20" height="38" as="geometry" />
        </mxCell>
        <mxCell id="_SJTar7--ndW2MHWfhsV-184" value="" style="endArrow=none;html=1;rounded=0;fillColor=#e1d5e7;strokeColor=#000000;" edge="1" source="_SJTar7--ndW2MHWfhsV-185" parent="_SJTar7--ndW2MHWfhsV-186">
          <mxGeometry width="50" height="50" relative="1" as="geometry">
            <mxPoint x="21" y="19" as="sourcePoint" />
            <mxPoint x="-20" y="19" as="targetPoint" />
          </mxGeometry>
        </mxCell>
        <mxCell id="_SJTar7--ndW2MHWfhsV-187" value="//" style="edgeLabel;html=1;align=center;verticalAlign=middle;resizable=0;points=[];" vertex="1" connectable="0" parent="_SJTar7--ndW2MHWfhsV-184">
          <mxGeometry x="0.3256" y="-1" relative="1" as="geometry">
            <mxPoint as="offset" />
          </mxGeometry>
        </mxCell>
        <mxCell id="_SJTar7--ndW2MHWfhsV-185" value="" style="shape=waypoint;sketch=0;fillStyle=solid;size=6;pointerEvents=1;points=[];fillColor=#e1d5e7;resizable=0;rotatable=0;perimeter=centerPerimeter;snapToPoint=1;strokeColor=#000000;rotation=-90;" vertex="1" parent="_SJTar7--ndW2MHWfhsV-186">
          <mxGeometry x="9" y="9" width="20" height="20" as="geometry" />
        </mxCell>
        <mxCell id="_SJTar7--ndW2MHWfhsV-188" value="&lt;font style=&quot;font-size: 13px;&quot;&gt;counter_min&lt;/font&gt;" style="text;html=1;align=center;verticalAlign=middle;whiteSpace=wrap;rounded=0;container=0;" vertex="1" parent="1">
          <mxGeometry x="770" y="449" width="50" height="20" as="geometry" />
        </mxCell>
        <mxCell id="_SJTar7--ndW2MHWfhsV-189" value="&lt;font style=&quot;font-size: 10px;&quot;&gt;6&lt;/font&gt;" style="text;html=1;align=center;verticalAlign=middle;whiteSpace=wrap;rounded=0;container=0;" vertex="1" parent="1">
          <mxGeometry x="710" y="442" width="30" height="10" as="geometry" />
        </mxCell>
        <mxCell id="_SJTar7--ndW2MHWfhsV-190" value="" style="group;direction=west;rotation=-90;" vertex="1" connectable="0" parent="1">
          <mxGeometry x="730" y="442" width="20" height="38" as="geometry" />
        </mxCell>
        <mxCell id="_SJTar7--ndW2MHWfhsV-191" value="" style="endArrow=none;html=1;rounded=0;fillColor=#e1d5e7;strokeColor=#000000;" edge="1" parent="_SJTar7--ndW2MHWfhsV-190" source="_SJTar7--ndW2MHWfhsV-193">
          <mxGeometry width="50" height="50" relative="1" as="geometry">
            <mxPoint x="21" y="19" as="sourcePoint" />
            <mxPoint x="-20" y="19" as="targetPoint" />
          </mxGeometry>
        </mxCell>
        <mxCell id="_SJTar7--ndW2MHWfhsV-192" value="//" style="edgeLabel;html=1;align=center;verticalAlign=middle;resizable=0;points=[];" vertex="1" connectable="0" parent="_SJTar7--ndW2MHWfhsV-191">
          <mxGeometry x="0.3256" y="-1" relative="1" as="geometry">
            <mxPoint as="offset" />
          </mxGeometry>
        </mxCell>
        <mxCell id="_SJTar7--ndW2MHWfhsV-193" value="" style="shape=waypoint;sketch=0;fillStyle=solid;size=6;pointerEvents=1;points=[];fillColor=#e1d5e7;resizable=0;rotatable=0;perimeter=centerPerimeter;snapToPoint=1;strokeColor=#000000;rotation=-90;" vertex="1" parent="_SJTar7--ndW2MHWfhsV-190">
          <mxGeometry x="9" y="9" width="20" height="20" as="geometry" />
        </mxCell>
        <mxCell id="_SJTar7--ndW2MHWfhsV-194" value="&lt;font style=&quot;font-size: 13px;&quot;&gt;counter_hr&lt;/font&gt;" style="text;html=1;align=center;verticalAlign=middle;whiteSpace=wrap;rounded=0;container=0;" vertex="1" parent="1">
          <mxGeometry x="1170" y="459" width="50" height="20" as="geometry" />
        </mxCell>
        <mxCell id="_SJTar7--ndW2MHWfhsV-195" value="&lt;font style=&quot;font-size: 10px;&quot;&gt;5&lt;/font&gt;" style="text;html=1;align=center;verticalAlign=middle;whiteSpace=wrap;rounded=0;container=0;" vertex="1" parent="1">
          <mxGeometry x="1110" y="452" width="30" height="10" as="geometry" />
        </mxCell>
        <mxCell id="_SJTar7--ndW2MHWfhsV-196" value="" style="group;direction=west;rotation=-90;" vertex="1" connectable="0" parent="1">
          <mxGeometry x="1130" y="452" width="20" height="38" as="geometry" />
        </mxCell>
        <mxCell id="_SJTar7--ndW2MHWfhsV-197" value="" style="endArrow=none;html=1;rounded=0;fillColor=#e1d5e7;strokeColor=#000000;" edge="1" parent="_SJTar7--ndW2MHWfhsV-196" source="_SJTar7--ndW2MHWfhsV-199">
          <mxGeometry width="50" height="50" relative="1" as="geometry">
            <mxPoint x="21" y="19" as="sourcePoint" />
            <mxPoint x="-20" y="19" as="targetPoint" />
          </mxGeometry>
        </mxCell>
        <mxCell id="_SJTar7--ndW2MHWfhsV-198" value="//" style="edgeLabel;html=1;align=center;verticalAlign=middle;resizable=0;points=[];" vertex="1" connectable="0" parent="_SJTar7--ndW2MHWfhsV-197">
          <mxGeometry x="0.3256" y="-1" relative="1" as="geometry">
            <mxPoint as="offset" />
          </mxGeometry>
        </mxCell>
        <mxCell id="_SJTar7--ndW2MHWfhsV-199" value="" style="shape=waypoint;sketch=0;fillStyle=solid;size=6;pointerEvents=1;points=[];fillColor=#e1d5e7;resizable=0;rotatable=0;perimeter=centerPerimeter;snapToPoint=1;strokeColor=#000000;rotation=-90;" vertex="1" parent="_SJTar7--ndW2MHWfhsV-196">
          <mxGeometry x="9" y="9" width="20" height="20" as="geometry" />
        </mxCell>
        <mxCell id="_SJTar7--ndW2MHWfhsV-22" value="&lt;font style=&quot;font-size: 15px;&quot;&gt;Counter&lt;/font&gt;&lt;div&gt;&lt;font style=&quot;font-size: 15px;&quot;&gt;mod_60&lt;/font&gt;&lt;/div&gt;" style="rounded=0;whiteSpace=wrap;html=1;container=0;" vertex="1" parent="1">
          <mxGeometry x="590" y="400" width="120" height="160" as="geometry" />
        </mxCell>
        <mxCell id="_SJTar7--ndW2MHWfhsV-42" value="&lt;font style=&quot;font-size: 15px;&quot;&gt;Counter&lt;/font&gt;&lt;div&gt;&lt;font style=&quot;font-size: 15px;&quot;&gt;mod_24&lt;/font&gt;&lt;/div&gt;" style="rounded=0;whiteSpace=wrap;html=1;container=0;" vertex="1" parent="1">
          <mxGeometry x="990" y="400" width="120" height="160" as="geometry" />
        </mxCell>
        <mxCell id="_SJTar7--ndW2MHWfhsV-201" value="" style="endArrow=none;html=1;rounded=0;fillColor=#e51400;strokeColor=#B20000;" edge="1" source="_SJTar7--ndW2MHWfhsV-202" parent="1">
          <mxGeometry width="50" height="50" relative="1" as="geometry">
            <mxPoint x="9" y="279" as="sourcePoint" />
            <mxPoint x="39" y="279" as="targetPoint" />
          </mxGeometry>
        </mxCell>
        <mxCell id="_SJTar7--ndW2MHWfhsV-202" value="" style="shape=waypoint;sketch=0;fillStyle=solid;size=6;pointerEvents=1;points=[];fillColor=#e51400;resizable=0;rotatable=0;perimeter=centerPerimeter;snapToPoint=1;strokeColor=#B20000;rotation=90;container=0;fontColor=#ffffff;" vertex="1" parent="1">
          <mxGeometry x="1" y="269" width="20" height="20" as="geometry" />
        </mxCell>
        <mxCell id="_SJTar7--ndW2MHWfhsV-206" value="" style="endArrow=none;html=1;rounded=0;fillColor=#008a00;strokeColor=#005700;" edge="1" parent="1" source="_SJTar7--ndW2MHWfhsV-207">
          <mxGeometry width="50" height="50" relative="1" as="geometry">
            <mxPoint x="9" y="309" as="sourcePoint" />
            <mxPoint x="39" y="309" as="targetPoint" />
          </mxGeometry>
        </mxCell>
        <mxCell id="_SJTar7--ndW2MHWfhsV-207" value="" style="shape=waypoint;sketch=0;fillStyle=solid;size=6;pointerEvents=1;points=[];fillColor=#008a00;resizable=0;rotatable=0;perimeter=centerPerimeter;snapToPoint=1;strokeColor=#005700;rotation=90;container=0;fontColor=#ffffff;" vertex="1" parent="1">
          <mxGeometry x="1" y="299" width="20" height="20" as="geometry" />
        </mxCell>
        <mxCell id="_SJTar7--ndW2MHWfhsV-209" value="" style="endArrow=none;html=1;rounded=0;fillColor=#e3c800;strokeColor=#B09500;" edge="1" parent="1" source="_SJTar7--ndW2MHWfhsV-210">
          <mxGeometry width="50" height="50" relative="1" as="geometry">
            <mxPoint x="9" y="341" as="sourcePoint" />
            <mxPoint x="39" y="341" as="targetPoint" />
          </mxGeometry>
        </mxCell>
        <mxCell id="_SJTar7--ndW2MHWfhsV-210" value="" style="shape=waypoint;sketch=0;fillStyle=solid;size=6;pointerEvents=1;points=[];fillColor=#e3c800;resizable=0;rotatable=0;perimeter=centerPerimeter;snapToPoint=1;strokeColor=#B09500;rotation=90;container=0;fontColor=#000000;" vertex="1" parent="1">
          <mxGeometry x="1" y="331" width="20" height="20" as="geometry" />
        </mxCell>
        <mxCell id="_SJTar7--ndW2MHWfhsV-212" value="" style="endArrow=none;html=1;rounded=0;fillColor=#a0522d;strokeColor=#6D1F00;" edge="1" parent="1" source="_SJTar7--ndW2MHWfhsV-213">
          <mxGeometry width="50" height="50" relative="1" as="geometry">
            <mxPoint x="9" y="371" as="sourcePoint" />
            <mxPoint x="39" y="371" as="targetPoint" />
          </mxGeometry>
        </mxCell>
        <mxCell id="_SJTar7--ndW2MHWfhsV-213" value="" style="shape=waypoint;sketch=0;fillStyle=solid;size=6;pointerEvents=1;points=[];fillColor=#a0522d;resizable=0;rotatable=0;perimeter=centerPerimeter;snapToPoint=1;strokeColor=#6D1F00;rotation=90;container=0;fontColor=#ffffff;" vertex="1" parent="1">
          <mxGeometry x="1" y="361" width="20" height="20" as="geometry" />
        </mxCell>
        <mxCell id="_SJTar7--ndW2MHWfhsV-215" value="" style="endArrow=none;html=1;rounded=0;fillColor=#76608a;strokeColor=#432D57;" edge="1" parent="1" source="_SJTar7--ndW2MHWfhsV-216">
          <mxGeometry width="50" height="50" relative="1" as="geometry">
            <mxPoint x="9" y="399" as="sourcePoint" />
            <mxPoint x="39" y="399" as="targetPoint" />
          </mxGeometry>
        </mxCell>
        <mxCell id="_SJTar7--ndW2MHWfhsV-232" value="//" style="edgeLabel;html=1;align=center;verticalAlign=middle;resizable=0;points=[];" vertex="1" connectable="0" parent="_SJTar7--ndW2MHWfhsV-215">
          <mxGeometry x="0.1395" relative="1" as="geometry">
            <mxPoint as="offset" />
          </mxGeometry>
        </mxCell>
        <mxCell id="_SJTar7--ndW2MHWfhsV-216" value="" style="shape=waypoint;sketch=0;fillStyle=solid;size=6;pointerEvents=1;points=[];fillColor=#76608a;resizable=0;rotatable=0;perimeter=centerPerimeter;snapToPoint=1;strokeColor=#432D57;rotation=90;container=0;fontColor=#ffffff;" vertex="1" parent="1">
          <mxGeometry x="1" y="389" width="20" height="20" as="geometry" />
        </mxCell>
        <mxCell id="_SJTar7--ndW2MHWfhsV-218" value="" style="endArrow=none;html=1;rounded=0;fillColor=#76608a;strokeColor=#432D57;" edge="1" parent="1" source="_SJTar7--ndW2MHWfhsV-219">
          <mxGeometry width="50" height="50" relative="1" as="geometry">
            <mxPoint x="9" y="429" as="sourcePoint" />
            <mxPoint x="39" y="429" as="targetPoint" />
          </mxGeometry>
        </mxCell>
        <mxCell id="_SJTar7--ndW2MHWfhsV-233" value="//" style="edgeLabel;html=1;align=center;verticalAlign=middle;resizable=0;points=[];" vertex="1" connectable="0" parent="_SJTar7--ndW2MHWfhsV-218">
          <mxGeometry x="-0.0307" y="1" relative="1" as="geometry">
            <mxPoint as="offset" />
          </mxGeometry>
        </mxCell>
        <mxCell id="_SJTar7--ndW2MHWfhsV-219" value="" style="shape=waypoint;sketch=0;fillStyle=solid;size=6;pointerEvents=1;points=[];fillColor=#76608a;resizable=0;rotatable=0;perimeter=centerPerimeter;snapToPoint=1;strokeColor=#432D57;rotation=90;container=0;fontColor=#ffffff;" vertex="1" parent="1">
          <mxGeometry x="1" y="419" width="20" height="20" as="geometry" />
        </mxCell>
        <mxCell id="_SJTar7--ndW2MHWfhsV-221" value="" style="endArrow=none;html=1;rounded=0;fillColor=#76608a;strokeColor=#432D57;" edge="1" parent="1" source="_SJTar7--ndW2MHWfhsV-222">
          <mxGeometry width="50" height="50" relative="1" as="geometry">
            <mxPoint x="9" y="461" as="sourcePoint" />
            <mxPoint x="39" y="461" as="targetPoint" />
          </mxGeometry>
        </mxCell>
        <mxCell id="_SJTar7--ndW2MHWfhsV-234" value="//" style="edgeLabel;html=1;align=center;verticalAlign=middle;resizable=0;points=[];" vertex="1" connectable="0" parent="_SJTar7--ndW2MHWfhsV-221">
          <mxGeometry x="0.0071" y="-1" relative="1" as="geometry">
            <mxPoint as="offset" />
          </mxGeometry>
        </mxCell>
        <mxCell id="_SJTar7--ndW2MHWfhsV-222" value="" style="shape=waypoint;sketch=0;fillStyle=solid;size=6;pointerEvents=1;points=[];fillColor=#76608a;resizable=0;rotatable=0;perimeter=centerPerimeter;snapToPoint=1;strokeColor=#432D57;rotation=90;container=0;fontColor=#ffffff;" vertex="1" parent="1">
          <mxGeometry x="1" y="451" width="20" height="20" as="geometry" />
        </mxCell>
        <mxCell id="_SJTar7--ndW2MHWfhsV-227" value="&lt;font style=&quot;font-size: 13px;&quot;&gt;set_min&lt;/font&gt;" style="text;html=1;align=center;verticalAlign=middle;whiteSpace=wrap;rounded=0;container=0;" vertex="1" parent="1">
          <mxGeometry x="-39" y="418" width="40" height="21" as="geometry" />
        </mxCell>
        <mxCell id="_SJTar7--ndW2MHWfhsV-228" value="&lt;font style=&quot;font-size: 13px;&quot;&gt;set_hr&lt;/font&gt;" style="text;html=1;align=center;verticalAlign=middle;whiteSpace=wrap;rounded=0;container=0;" vertex="1" parent="1">
          <mxGeometry x="-39" y="449.5" width="40" height="21" as="geometry" />
        </mxCell>
        <mxCell id="_SJTar7--ndW2MHWfhsV-229" value="&lt;font style=&quot;font-size: 13px;&quot;&gt;set_sec&lt;/font&gt;" style="text;html=1;align=center;verticalAlign=middle;whiteSpace=wrap;rounded=0;container=0;" vertex="1" parent="1">
          <mxGeometry x="111" y="529.5" width="40" height="21" as="geometry" />
        </mxCell>
        <mxCell id="_SJTar7--ndW2MHWfhsV-230" value="&lt;font style=&quot;font-size: 13px;&quot;&gt;set_min&lt;/font&gt;" style="text;html=1;align=center;verticalAlign=middle;whiteSpace=wrap;rounded=0;container=0;" vertex="1" parent="1">
          <mxGeometry x="510" y="529" width="40" height="21" as="geometry" />
        </mxCell>
        <mxCell id="_SJTar7--ndW2MHWfhsV-231" value="&lt;font style=&quot;font-size: 13px;&quot;&gt;set_hr&lt;/font&gt;" style="text;html=1;align=center;verticalAlign=middle;whiteSpace=wrap;rounded=0;container=0;" vertex="1" parent="1">
          <mxGeometry x="916" y="527" width="40" height="21" as="geometry" />
        </mxCell>
        <mxCell id="_SJTar7--ndW2MHWfhsV-235" value="&lt;font style=&quot;font-size: 10px;&quot;&gt;6&lt;/font&gt;" style="text;html=1;align=center;verticalAlign=middle;whiteSpace=wrap;rounded=0;container=0;" vertex="1" parent="1">
          <mxGeometry x="20" y="381" width="20" height="12" as="geometry" />
        </mxCell>
        <mxCell id="_SJTar7--ndW2MHWfhsV-236" value="&lt;font style=&quot;font-size: 10px;&quot;&gt;6&lt;/font&gt;" style="text;html=1;align=center;verticalAlign=middle;whiteSpace=wrap;rounded=0;container=0;" vertex="1" parent="1">
          <mxGeometry x="20" y="413" width="20" height="12" as="geometry" />
        </mxCell>
        <mxCell id="_SJTar7--ndW2MHWfhsV-237" value="&lt;font style=&quot;font-size: 10px;&quot;&gt;5&lt;/font&gt;" style="text;html=1;align=center;verticalAlign=middle;whiteSpace=wrap;rounded=0;container=0;" vertex="1" parent="1">
          <mxGeometry x="21" y="447" width="20" height="12" as="geometry" />
        </mxCell>
        <mxCell id="_SJTar7--ndW2MHWfhsV-253" value="&lt;font style=&quot;font-size: 13px;&quot;&gt;counter_sec&lt;/font&gt;" style="text;html=1;align=center;verticalAlign=middle;whiteSpace=wrap;rounded=0;container=0;" vertex="1" parent="1">
          <mxGeometry x="1340" y="349" width="50" height="20" as="geometry" />
        </mxCell>
        <mxCell id="_SJTar7--ndW2MHWfhsV-254" value="&lt;font style=&quot;font-size: 10px;&quot;&gt;6&lt;/font&gt;" style="text;html=1;align=center;verticalAlign=middle;whiteSpace=wrap;rounded=0;container=0;" vertex="1" parent="1">
          <mxGeometry x="1280" y="342" width="30" height="10" as="geometry" />
        </mxCell>
        <mxCell id="_SJTar7--ndW2MHWfhsV-255" value="" style="group;direction=west;rotation=-90;" vertex="1" connectable="0" parent="1">
          <mxGeometry x="1300" y="342" width="20" height="38" as="geometry" />
        </mxCell>
        <mxCell id="_SJTar7--ndW2MHWfhsV-256" value="" style="endArrow=none;html=1;rounded=0;fillColor=#e1d5e7;strokeColor=#000000;" edge="1" parent="_SJTar7--ndW2MHWfhsV-255" source="_SJTar7--ndW2MHWfhsV-258">
          <mxGeometry width="50" height="50" relative="1" as="geometry">
            <mxPoint x="21" y="19" as="sourcePoint" />
            <mxPoint x="-20" y="19" as="targetPoint" />
          </mxGeometry>
        </mxCell>
        <mxCell id="_SJTar7--ndW2MHWfhsV-257" value="//" style="edgeLabel;html=1;align=center;verticalAlign=middle;resizable=0;points=[];" vertex="1" connectable="0" parent="_SJTar7--ndW2MHWfhsV-256">
          <mxGeometry x="0.3256" y="-1" relative="1" as="geometry">
            <mxPoint as="offset" />
          </mxGeometry>
        </mxCell>
        <mxCell id="_SJTar7--ndW2MHWfhsV-258" value="" style="shape=waypoint;sketch=0;fillStyle=solid;size=6;pointerEvents=1;points=[];fillColor=#e1d5e7;resizable=0;rotatable=0;perimeter=centerPerimeter;snapToPoint=1;strokeColor=#000000;rotation=-90;" vertex="1" parent="_SJTar7--ndW2MHWfhsV-255">
          <mxGeometry x="9" y="9" width="20" height="20" as="geometry" />
        </mxCell>
        <mxCell id="_SJTar7--ndW2MHWfhsV-259" value="&lt;font style=&quot;font-size: 13px;&quot;&gt;counter_min&lt;/font&gt;" style="text;html=1;align=center;verticalAlign=middle;whiteSpace=wrap;rounded=0;container=0;" vertex="1" parent="1">
          <mxGeometry x="1340" y="387" width="50" height="20" as="geometry" />
        </mxCell>
        <mxCell id="_SJTar7--ndW2MHWfhsV-260" value="&lt;font style=&quot;font-size: 10px;&quot;&gt;6&lt;/font&gt;" style="text;html=1;align=center;verticalAlign=middle;whiteSpace=wrap;rounded=0;container=0;" vertex="1" parent="1">
          <mxGeometry x="1280" y="380" width="30" height="10" as="geometry" />
        </mxCell>
        <mxCell id="_SJTar7--ndW2MHWfhsV-261" value="" style="group;direction=west;rotation=-90;" vertex="1" connectable="0" parent="1">
          <mxGeometry x="1300" y="380" width="20" height="38" as="geometry" />
        </mxCell>
        <mxCell id="_SJTar7--ndW2MHWfhsV-262" value="" style="endArrow=none;html=1;rounded=0;fillColor=#e1d5e7;strokeColor=#000000;" edge="1" parent="_SJTar7--ndW2MHWfhsV-261" source="_SJTar7--ndW2MHWfhsV-264">
          <mxGeometry width="50" height="50" relative="1" as="geometry">
            <mxPoint x="21" y="19" as="sourcePoint" />
            <mxPoint x="-20" y="19" as="targetPoint" />
          </mxGeometry>
        </mxCell>
        <mxCell id="_SJTar7--ndW2MHWfhsV-263" value="//" style="edgeLabel;html=1;align=center;verticalAlign=middle;resizable=0;points=[];" vertex="1" connectable="0" parent="_SJTar7--ndW2MHWfhsV-262">
          <mxGeometry x="0.3256" y="-1" relative="1" as="geometry">
            <mxPoint as="offset" />
          </mxGeometry>
        </mxCell>
        <mxCell id="_SJTar7--ndW2MHWfhsV-264" value="" style="shape=waypoint;sketch=0;fillStyle=solid;size=6;pointerEvents=1;points=[];fillColor=#e1d5e7;resizable=0;rotatable=0;perimeter=centerPerimeter;snapToPoint=1;strokeColor=#000000;rotation=-90;" vertex="1" parent="_SJTar7--ndW2MHWfhsV-261">
          <mxGeometry x="9" y="9" width="20" height="20" as="geometry" />
        </mxCell>
        <mxCell id="_SJTar7--ndW2MHWfhsV-265" value="&lt;font style=&quot;font-size: 13px;&quot;&gt;counter_hr&lt;/font&gt;" style="text;html=1;align=center;verticalAlign=middle;whiteSpace=wrap;rounded=0;container=0;" vertex="1" parent="1">
          <mxGeometry x="1340" y="426" width="50" height="20" as="geometry" />
        </mxCell>
        <mxCell id="_SJTar7--ndW2MHWfhsV-266" value="&lt;font style=&quot;font-size: 10px;&quot;&gt;5&lt;/font&gt;" style="text;html=1;align=center;verticalAlign=middle;whiteSpace=wrap;rounded=0;container=0;" vertex="1" parent="1">
          <mxGeometry x="1280" y="419" width="30" height="10" as="geometry" />
        </mxCell>
        <mxCell id="_SJTar7--ndW2MHWfhsV-267" value="" style="group;direction=west;rotation=-90;" vertex="1" connectable="0" parent="1">
          <mxGeometry x="1300" y="419" width="20" height="38" as="geometry" />
        </mxCell>
        <mxCell id="_SJTar7--ndW2MHWfhsV-268" value="" style="endArrow=none;html=1;rounded=0;fillColor=#e1d5e7;strokeColor=#000000;" edge="1" parent="_SJTar7--ndW2MHWfhsV-267" source="_SJTar7--ndW2MHWfhsV-270">
          <mxGeometry width="50" height="50" relative="1" as="geometry">
            <mxPoint x="21" y="19" as="sourcePoint" />
            <mxPoint x="-20" y="19" as="targetPoint" />
          </mxGeometry>
        </mxCell>
        <mxCell id="_SJTar7--ndW2MHWfhsV-269" value="//" style="edgeLabel;html=1;align=center;verticalAlign=middle;resizable=0;points=[];" vertex="1" connectable="0" parent="_SJTar7--ndW2MHWfhsV-268">
          <mxGeometry x="0.3256" y="-1" relative="1" as="geometry">
            <mxPoint as="offset" />
          </mxGeometry>
        </mxCell>
        <mxCell id="_SJTar7--ndW2MHWfhsV-270" value="" style="shape=waypoint;sketch=0;fillStyle=solid;size=6;pointerEvents=1;points=[];fillColor=#e1d5e7;resizable=0;rotatable=0;perimeter=centerPerimeter;snapToPoint=1;strokeColor=#000000;rotation=-90;" vertex="1" parent="_SJTar7--ndW2MHWfhsV-267">
          <mxGeometry x="9" y="9" width="20" height="20" as="geometry" />
        </mxCell>
      </root>
    </mxGraphModel>
  </diagram>
</mxfile>
